<svg width="32" height="32" viewBox="0 0 32 32" fill="none" xmlns="http://www.w3.org/2000/svg">
  <path d="M18.5585 8.02916H13.4265L8.24957 22.7408H11.6344L12.6962 19.7319H17.8292L16.9184 17.1435H13.6033L15.9925 10.352L20.3496 22.7384L20.3506 22.7408H23.7353L18.5585 8.02916Z" fill="#F7F9F9"/>
  <path d="M29.9448 8.15506C29.8598 8.00426 29.7183 7.89342 29.5515 7.84693C29.3847 7.80043 29.2063 7.82209 29.0555 7.90715C28.9047 7.9922 28.7938 8.13369 28.7473 8.30047C28.7008 8.46725 28.7225 8.64567 28.8076 8.79647C30.5387 11.8746 31.1034 15.4732 30.3982 18.9337C29.6929 22.3941 27.765 25.4847 24.9673 27.6399C22.1696 29.795 18.6893 30.8704 15.1635 30.6693C11.6377 30.4682 8.30225 29.004 5.76777 26.5446C3.2333 24.0853 1.66935 20.7955 1.3622 17.2773C1.05506 13.7592 2.02528 10.2481 4.09525 7.38678C6.16522 4.52549 9.19646 2.50542 12.6341 1.69637C16.0717 0.887321 19.6857 1.34341 22.8145 2.98115C22.7143 3.4427 22.7808 3.92485 23.0023 4.342C23.2238 4.75915 23.586 5.08431 24.0245 5.25978C24.463 5.43526 24.9495 5.44968 25.3976 5.3005C25.8458 5.15131 26.2265 4.84816 26.4724 4.44487C26.7182 4.04158 26.8132 3.56423 26.7405 3.09755C26.6677 2.63087 26.432 2.20505 26.0751 1.89568C25.7182 1.58632 25.2633 1.4134 24.791 1.40765C24.3187 1.4019 23.8597 1.56367 23.4953 1.86426C20.0946 0.0610536 16.1578 -0.455719 12.4069 0.408697C8.656 1.27311 5.34245 3.46078 3.07393 6.57049C0.80541 9.6802 -0.26601 13.5035 0.0561697 17.3392C0.378349 21.1749 2.07253 24.7659 4.82801 27.4536C7.58348 30.1414 11.2155 31.7456 15.0581 31.9722C18.9006 32.1988 22.6961 31.0326 25.7484 28.6874C28.8006 26.3422 30.9051 22.9752 31.6759 19.2039C32.4467 15.4327 31.8321 11.5099 29.9448 8.15506Z" fill="#F7F9F9"/>
</svg>
  