<svg width="94" height="32" viewBox="0 0 94 32" fill="none" xmlns="http://www.w3.org/2000/svg">
  <path d="M52.6294 18.8101C52.099 19.8093 51.2983 20.6393 50.3187 21.2052C49.3292 21.7814 48.2022 22.0694 46.9374 22.0693C45.6726 22.0692 44.5455 21.7811 43.5561 21.2052C42.5763 20.6395 41.7756 19.8094 41.2453 18.8101C40.6942 17.7895 40.4186 16.6468 40.4188 15.3818C40.419 14.1169 40.6945 12.9741 41.2453 11.9535C41.7758 10.9543 42.5765 10.1243 43.5561 9.55848C44.5452 8.98254 45.6723 8.69448 46.9374 8.69429C48.2024 8.69411 49.3295 8.98217 50.3187 9.55848C51.2982 10.1245 52.0988 10.9544 52.6294 11.9535C53.1803 12.9744 53.4558 14.1172 53.456 15.3818C53.456 16.6469 53.1805 17.7896 52.6294 18.8101ZM43.7441 17.5985C44.0446 18.2497 44.4704 18.76 45.0214 19.1294C45.5724 19.4987 46.2111 19.6835 46.9376 19.6835C47.6514 19.6835 48.2838 19.4988 48.8349 19.1294C49.3859 18.76 49.8117 18.2497 50.1122 17.5985C50.4128 16.9473 50.5631 16.2084 50.5631 15.3818C50.5631 14.5552 50.4128 13.8163 50.1122 13.1652C49.8117 12.5141 49.3859 12.0037 48.8349 11.6342C48.2838 11.2647 47.6514 11.0799 46.9376 11.0801C46.2111 11.0801 45.5724 11.2648 45.0214 11.6342C44.4705 12.0036 44.0447 12.514 43.7441 13.1652C43.4435 13.8165 43.2932 14.5554 43.2932 15.3818C43.2932 16.2083 43.4435 16.9472 43.7441 17.5985Z" fill="#F7F9F9"/>
  <path d="M92.8299 18.8101C92.2996 19.8093 91.4988 20.6393 90.5192 21.2052C89.5298 21.7814 88.4027 22.0694 87.1379 22.0693C85.8732 22.0692 84.7461 21.7811 83.7566 21.2052C82.7769 20.6395 81.9761 19.8094 81.4459 18.8101C80.8947 17.7895 80.6192 16.6468 80.6193 15.3818C80.6195 14.1169 80.895 12.9741 81.4459 11.9535C81.9763 10.9543 82.777 10.1243 83.7566 9.55848C84.7458 8.98254 85.8729 8.69448 87.1379 8.69429C88.403 8.69411 89.5301 8.98217 90.5192 9.55848C91.4987 10.1245 92.2994 10.9544 92.8299 11.9535C93.3809 12.9744 93.6564 14.1172 93.6565 15.3818C93.6565 16.6469 93.381 17.7896 92.8299 18.8101ZM83.9446 17.5985C84.2452 18.2497 84.671 18.76 85.222 19.1294C85.773 19.4987 86.4117 19.6835 87.1381 19.6835C87.8519 19.6835 88.4843 19.4988 89.0354 19.1294C89.5864 18.76 90.0122 18.2497 90.3128 17.5985C90.6133 16.9473 90.7636 16.2084 90.7636 15.3818C90.7636 14.5552 90.6133 13.8163 90.3128 13.1652C90.0122 12.5141 89.5864 12.0037 89.0354 11.6342C88.4844 11.2647 87.8519 11.0799 87.1381 11.0801C86.4116 11.0801 85.7729 11.2648 85.222 11.6342C84.6711 12.0036 84.2453 12.514 83.9446 13.1652C83.6441 13.8165 83.4938 14.5554 83.4938 15.3818C83.4938 16.2083 83.6441 16.9472 83.9446 17.5985Z" fill="#F7F9F9"/>
  <path d="M18.1749 9.13588H13.8171L9.42116 21.6281H12.2953L13.1969 19.0732H17.5556L16.7821 16.8752H13.9672L15.996 11.1084L19.696 21.6261L19.6967 21.6282H22.5709L18.1749 9.13588Z" fill="#F7F9F9"/>
  <path d="M36.249 10.2535C36.9001 10.9987 37.2257 11.9599 37.2257 13.137C37.2257 14.3768 36.9032 15.3756 36.2583 16.1332C35.6133 16.8909 34.6146 17.2697 33.2621 17.2697H29.505V21.6278H26.6309V9.13588H33.262C34.602 9.13588 35.5977 9.50842 36.249 10.2535ZM32.3605 15.0531C33.0242 15.0531 33.5063 14.884 33.807 14.5459C34.1076 14.2077 34.2579 13.7443 34.2578 13.1558C34.2578 11.9535 33.6316 11.3524 32.3793 11.3524H29.5052V15.0531H32.3605Z" fill="#F7F9F9"/>
  <path d="M60.1841 9.13588V19.355H66.0262V21.628H57.31V9.13588H60.1841Z" fill="#F7F9F9"/>
  <path d="M72.078 9.13588V19.355H77.9201V21.628H69.2039V9.13588H72.078Z" fill="#F7F9F9"/>
  <path d="M24.7679 5.07182C25.0295 5.07191 25.2874 5.01041 25.5208 4.89231C25.7542 4.7742 25.9564 4.6028 26.1113 4.39198C26.2661 4.18117 26.3691 3.93686 26.412 3.67884C26.4549 3.42081 26.4364 3.15633 26.358 2.90678C26.2797 2.65722 26.1437 2.42962 25.9611 2.24239C25.7784 2.05516 25.5543 1.91356 25.3067 1.82905C25.0592 1.74455 24.7952 1.71951 24.5362 1.75597C24.2772 1.79242 24.0304 1.88936 23.8159 2.03891C21.323 0.643313 18.5019 -0.0593509 15.6456 0.00392576C12.7894 0.0672024 10.0022 0.894113 7.57353 2.39874C5.14489 3.90336 3.16343 6.03082 1.83497 8.56012C0.506506 11.0894 -0.120487 13.9283 0.0191167 16.7818C0.15872 19.6354 1.05983 22.3995 2.62884 24.787C4.19784 27.1746 6.37751 29.0985 8.94142 30.3589C11.5053 31.6192 14.3599 32.1701 17.2087 31.9543C20.0575 31.7384 22.7966 30.7638 25.1413 29.1315C25.2116 29.0825 25.2715 29.0201 25.3177 28.9479C25.3638 28.8757 25.3953 28.7951 25.4103 28.7108C25.4254 28.6264 25.4236 28.5399 25.4052 28.4562C25.3868 28.3726 25.3521 28.2933 25.3031 28.223C25.2541 28.1527 25.1917 28.0928 25.1195 28.0467C25.0473 28.0005 24.9667 27.969 24.8823 27.954C24.798 27.939 24.7115 27.9407 24.6278 27.9591C24.5441 27.9775 24.4649 28.0122 24.3946 28.0613C22.2435 29.5577 19.7312 30.4517 17.1183 30.6504C14.5054 30.8492 11.8869 30.3455 9.53413 29.1916C7.18139 28.0377 5.18006 26.2756 3.73757 24.0879C2.29509 21.9001 1.46394 19.3665 1.33027 16.7494C1.19661 14.1323 1.76529 11.5272 2.97737 9.20387C4.18946 6.88057 6.00084 4.9237 8.22377 3.5361C10.4467 2.1485 13.0003 1.38066 15.6199 1.31215C18.2394 1.24365 20.8297 1.87699 23.1221 3.14651C23.0847 3.38429 23.0993 3.62733 23.1648 3.85894C23.2303 4.09054 23.3453 4.3052 23.5017 4.48816C23.6581 4.67112 23.8522 4.81803 24.0708 4.91879C24.2894 5.01954 24.5272 5.07175 24.7679 5.07182Z" fill="#F7F9F9"/>
</svg>
  